<?xml version="1.0" encoding="utf-8"?>
<!-- Generator: Adobe Illustrator 23.0.2, SVG Export Plug-In . SVG Version: 6.00 Build 0)  -->
<svg version="1.1" id="图层_1" xmlns="http://www.w3.org/2000/svg" xmlns:xlink="http://www.w3.org/1999/xlink" x="0px" y="0px"
	 viewBox="0 0 419.09 403.06" style="enable-background:new 0 0 419.09 403.06;" xml:space="preserve">
<style type="text/css">
	.st0{fill:#BF3730;}
</style>
<g>
	<path class="st0" d="M92.56,278.99c7.01,6.28,13.92,12.47,20.85,18.67c-1.49,2.21-2.91,4.21-4.18,6.3
		c-0.24,0.4-0.06,1.49,0.29,1.73c2.03,1.37,4.18,2.57,6.28,3.85c2.29,1.39,4.54,2.83,6.85,4.17c1.82,1.06,3.71,1.99,5.55,3
		c1.91,1.05,3.79,2.15,5.71,3.17c1.96,1.04,3.96,2.01,5.95,3c2.2,1.09,4.39,2.21,6.61,3.26c1.65,0.78,3.35,1.45,5.02,2.18
		c1.61,0.7,3.21,1.4,4.81,2.12c0.99,0.44,1.96,0.94,2.97,1.34c2.96,1.18,5.92,2.35,8.9,3.45c1.28,0.47,2.62,0.76,3.92,1.17
		c1,0.31,2,0.64,2.99,1c1.31,0.48,2.59,1.06,3.92,1.47c1.45,0.45,2.96,0.71,4.43,1.12c1.5,0.42,2.98,0.91,4.47,1.38
		c0.15,0.05,0.29,0.14,0.44,0.17c1.83,0.39,3.67,0.75,5.5,1.16c1.98,0.44,3.95,0.93,5.93,1.4c0.23,0.05,0.46,0.11,0.69,0.15
		c1.62,0.29,3.23,0.64,4.86,0.87c2.96,0.4,5.94,0.7,8.9,1.09c7.9,1.02,15.83,1.06,23.77,0.82c4.05-0.12,8.1-0.53,12.13-1.02
		c3.31-0.4,6.59-1.06,9.86-1.72c2.53-0.51,5.04-1.11,7.51-1.83c2.35-0.68,4.63-1.58,6.95-2.38c2.02-0.69,4.1-1.27,6.07-2.08
		c2.37-0.98,4.67-2.12,6.97-3.24c2.55-1.25,5.13-2.45,7.59-3.87c2.93-1.69,5.74-3.58,8.58-5.4c0.61-0.39,0.52-1.36-0.15-2.06
		c-3.05-3.22-6.11-6.43-9.16-9.64c-5.55-5.83-11.09-11.66-16.66-17.48c-4.01-4.19-8.08-8.34-12.08-12.54
		c-3.79-3.98-7.52-8.02-11.31-12c-4.57-4.81-9.19-9.58-13.77-14.38c-6.78-7.1-13.54-14.22-20.33-21.31
		c-4.55-4.75-9.17-9.44-13.72-14.19c-4.07-4.25-8.07-8.57-12.14-12.82c-5.87-6.13-11.78-12.21-17.66-18.33
		c-7.15-7.44-14.28-14.9-21.43-22.34c-1.53-1.6-3.11-3.15-4.63-4.77c-0.5-0.53-0.84-0.55-1.37-0.07c-2.89,2.65-5.83,5.25-8.71,7.92
		c-3.7,3.42-7.35,6.9-11.04,10.33c-4.35,4.05-8.71,8.08-13.07,12.12c-4.21,3.91-8.43,7.82-12.62,11.75
		c-0.59,0.55-0.99,0.42-1.49-0.07c-5.31-5.26-10.65-10.5-15.95-15.77c-5.24-5.21-10.42-10.47-15.66-15.68
		c-6.89-6.85-13.8-13.69-20.73-20.5c-0.76-0.75-0.7-1.12,0.09-1.86c5.58-5.18,11.08-10.44,16.65-15.63
		c6.33-5.9,12.73-11.73,19.06-17.63c5.26-4.9,10.44-9.88,15.69-14.79c4.31-4.03,8.7-7.97,13.01-12.01
		c5.56-5.21,11.04-10.49,16.6-15.7c4.31-4.04,8.75-7.93,12.97-12.05c1.22-1.19,2.36-1.69,3.99-1.54c3.49,0.33,6.99,0.61,10.49,0.83
		c6.14,0.39,12.29,0.69,18.44,1.07c4.53,0.28,9.05,0.63,13.57,0.96c4.33,0.31,8.66,0.63,12.98,0.96c2.44,0.19,4.88,0.65,7.31,0.57
		c2.08-0.07,3.39,0.82,4.76,2.14c3.38,3.26,6.87,6.4,10.31,9.6c1.2,1.12,2.34,2.29,3.55,3.39c0.55,0.51,0.46,0.95,0.01,1.4
		c-3.96,3.95-7.94,7.87-11.89,11.83c-4.03,4.05-8,8.14-12.03,12.19c-3.7,3.72-7.47,7.37-11.17,11.08
		c-4.02,4.02-7.99,8.08-11.99,12.12c-1.01,1.02-2.05,2.03-3.08,3.03c-0.66,0.63-0.68,1.4,0,2.02c4.68,4.3,9.41,8.54,14.04,12.89
		c4.2,3.94,8.31,7.96,12.43,11.98c5.25,5.12,10.48,10.26,15.68,15.44c5.52,5.49,11,11.03,16.5,16.56c4.37,4.4,8.75,8.8,13.1,13.22
		c3.65,3.7,7.28,7.43,10.89,11.17c4.39,4.55,8.76,9.12,13.14,13.68c4.29,4.45,8.58,8.9,12.88,13.34c4.72,4.88,9.47,9.74,14.16,14.65
		c4.64,4.86,9.22,9.78,13.84,14.66c5.76,6.07,11.54,12.11,17.31,18.17c0.32,0.34,0.64,0.69,0.99,1.01c1.04,0.95,1.58,0.96,2.36-0.22
		c1.37-2.08,2.65-4.23,3.95-6.35c1.06-1.72,2.16-3.42,3.13-5.19c1.08-1.98,2.05-4.02,3.05-6.04c0.8-1.6,1.64-3.17,2.36-4.8
		c0.77-1.74,1.43-3.54,2.13-5.32c0.34-0.87,0.64-1.75,0.99-2.62c0.46-1.12,1-2.2,1.4-3.33c0.45-1.29,0.76-2.62,1.19-3.92
		c0.43-1.33,0.94-2.63,1.38-3.96c0.37-1.11,0.72-2.22,1-3.36c0.42-1.71,0.77-3.43,1.16-5.15c0.46-2.02,0.94-4.03,1.42-6.05
		c0.05-0.23,0.17-0.45,0.2-0.68c0.37-2.52,0.74-5.05,1.09-7.58c0.5-3.62,1.15-7.23,1.44-10.86c0.3-3.7,0.33-7.42,0.33-11.13
		c0-5.45-0.04-10.91-0.24-16.36c-0.11-3.07-0.57-6.12-0.92-9.18c-0.21-1.83-0.43-3.67-0.77-5.49c-0.43-2.31-1.01-4.59-1.49-6.89
		c-0.39-1.84-0.66-3.7-1.1-5.53c-0.44-1.86-0.99-3.68-1.51-5.52c-0.32-1.12-0.68-2.24-0.99-3.36c-0.38-1.39-0.68-2.8-1.11-4.18
		c-0.4-1.3-0.92-2.57-1.4-3.84c-0.38-1.02-0.76-2.04-1.14-3.06c-0.98-2.62-1.86-5.29-2.98-7.85c-1.25-2.88-2.68-5.68-4.11-8.48
		c-1.86-3.63-3.65-7.3-5.73-10.8c-2.12-3.58-4.45-7.04-6.85-10.44c-2.68-3.79-5.37-7.6-8.36-11.14c-3.57-4.22-7.34-8.28-11.25-12.17
		c-3.92-3.9-8.01-7.64-12.23-11.21c-3.21-2.72-6.7-5.11-10.1-7.6c-2.33-1.7-4.67-3.39-7.1-4.93c-2.72-1.73-5.55-3.29-8.34-4.92
		c-1.91-1.11-3.81-2.25-5.76-3.28c-2.02-1.07-4.11-2.01-6.17-3.01c-2.19-1.06-4.36-2.18-6.58-3.18c-1.74-0.78-3.54-1.41-5.3-2.13
		c-1.14-0.47-2.26-1-3.4-1.47c-0.79-0.33-1.59-0.64-2.4-0.91c-1.22-0.42-2.45-0.77-3.67-1.2c-1.24-0.44-2.45-0.95-3.69-1.4
		c-1.13-0.41-2.27-0.81-3.43-1.13c-2.48-0.7-4.97-1.34-7.45-2.01c-2.26-0.61-4.51-1.26-6.77-1.83c-2.5-0.62-5.01-1.19-7.53-1.72
		c-3.1-0.66-6.2-1.29-9.32-1.86c-3.39-0.61-6.8-1.15-10.2-1.69c-3.15-0.5-6.29-0.99-9.45-1.45c-1.05-0.15-2.12-0.21-3.19-0.27
		c-5.71-0.37-11.43-0.59-17.12-1.12c-8.92-0.83-17.84-0.71-26.77-0.46c-6.08,0.17-12.15,0.56-18.22,0.91
		c-3.15,0.18-6.29,0.44-9.42,0.78c-3.75,0.41-7.49,0.96-11.24,1.45c-0.51,0.07-1.02,0.11-1.53,0.17c-1.79,0.23-3.58,0.47-5.37,0.69
		c-0.97,0.12-1.94,0.19-2.91,0.28c-0.02-0.1-0.04-0.2-0.06-0.3c2.03-0.66,4.07-1.32,6.09-2c1.29-0.44,2.57-0.92,3.85-1.38
		c0.26-0.09,0.51-0.2,0.77-0.28c1.77-0.55,3.55-1.1,5.33-1.64c1.04-0.32,2.09-0.64,3.14-0.92c1.47-0.38,2.96-0.71,4.43-1.09
		c1.92-0.51,3.83-1.06,5.75-1.58c1.21-0.33,2.41-0.67,3.63-0.92c1.99-0.42,4-0.74,6-1.16c2.18-0.45,4.35-0.98,6.53-1.44
		c1.69-0.36,3.38-0.73,5.09-0.98c2.83-0.43,5.68-0.75,8.52-1.16c3.23-0.46,6.45-1.01,9.68-1.42c1.91-0.24,3.85-0.28,5.78-0.43
		c6.1-0.46,12.19-1.15,18.29-1.32c6.7-0.19,13.42,0.08,20.13,0.2c3.16,0.06,6.32,0.21,9.47,0.4c1.65,0.1,3.28,0.36,4.93,0.55
		c0.39,0.05,0.78,0.12,1.17,0.16c3.96,0.39,7.93,0.69,11.87,1.19c2.56,0.33,5.08,0.95,7.62,1.44c0.23,0.04,0.46,0.1,0.7,0.14
		c2.29,0.36,4.59,0.64,6.86,1.09c2.69,0.53,5.36,1.15,8.01,1.84c2.72,0.71,5.39,1.59,8.09,2.36c1.46,0.42,2.96,0.73,4.42,1.17
		c1.3,0.4,2.56,0.92,3.84,1.38c0.99,0.35,1.99,0.7,2.99,1.02c1.26,0.4,2.56,0.71,3.8,1.17c1.81,0.69,3.58,1.48,5.37,2.22
		c1.01,0.42,2.03,0.8,3.04,1.23c1.82,0.77,3.63,1.56,5.43,2.36c1.6,0.71,3.19,1.44,4.77,2.18c1.44,0.67,2.88,1.34,4.29,2.06
		c1.48,0.76,2.93,1.57,4.38,2.38c1.93,1.08,3.86,2.17,5.78,3.29c2.19,1.28,4.38,2.55,6.51,3.92c2.42,1.55,4.84,3.14,7.16,4.83
		c3.91,2.85,7.84,5.69,11.59,8.76c3.55,2.9,6.94,6.02,10.29,9.17c3.24,3.05,6.43,6.17,9.45,9.44c3.52,3.81,6.89,7.76,10.22,11.75
		c2.4,2.87,4.67,5.85,6.88,8.87c1.96,2.67,3.78,5.44,5.61,8.2c1.36,2.04,2.68,4.1,3.94,6.2c1.44,2.4,2.81,4.84,4.19,7.27
		c1.07,1.89,2.14,3.77,3.16,5.68c0.75,1.41,1.42,2.86,2.12,4.29c0.82,1.67,1.64,3.34,2.44,5.02c0.38,0.81,0.72,1.64,1.07,2.46
		c0.86,2.04,1.75,4.07,2.55,6.14c0.75,1.92,1.39,3.87,2.1,5.8c0.77,2.08,1.59,4.14,2.35,6.22c0.41,1.14,0.75,2.3,1.07,3.47
		c0.41,1.51,0.74,3.03,1.17,4.53c0.44,1.54,0.98,3.04,1.44,4.57c0.34,1.16,0.67,2.33,0.92,3.51c0.39,1.88,0.69,3.77,1.07,5.66
		c0.49,2.46,1.02,4.91,1.53,7.37c0.03,0.15,0.07,0.31,0.09,0.46c0.34,2.57,0.68,5.14,1.02,7.72c0.94,7.13,1.21,14.31,1.26,21.49
		c0.04,5.88-0.2,11.77-0.47,17.65c-0.12,2.71-0.53,5.41-0.93,8.1c-0.5,3.37-1.06,6.73-1.72,10.08c-0.44,2.22-1.08,4.41-1.65,6.6
		c-0.52,2-1.06,3.99-1.6,5.98c-0.37,1.36-0.72,2.72-1.13,4.07c-0.46,1.48-0.98,2.94-1.48,4.41c-0.36,1.03-0.74,2.05-1.1,3.08
		c-0.67,1.91-1.26,3.85-2.02,5.73c-0.67,1.65-1.55,3.22-2.29,4.84c-0.75,1.62-1.39,3.29-2.18,4.89c-0.93,1.87-1.92,3.72-2.96,5.53
		c-1.3,2.27-2.66,4.5-4.01,6.73c-1.27,2.09-2.53,4.18-3.88,6.22c-1.64,2.46-3.31,4.91-5.08,7.28c-2.49,3.34-5.09,6.62-7.65,9.91
		c-0.67,0.87-1.52,1.64-2.02,2.59c-0.26,0.49-0.2,1.52,0.15,1.91c3.76,4.18,7.6,8.3,11.44,12.41c4.61,4.93,9.27,9.83,13.86,14.77
		c2.16,2.32,4.44,4.58,6.29,7.14c1.67,2.3,2.46,4.91,1.5,7.97c-0.76,2.41-1.63,4.69-2.95,6.83c-1.84,2.98-4.11,5.6-6.75,7.86
		c-2.18,1.87-4.51,3.6-6.94,5.13c-1.55,0.97-3.42,1.41-5.11,2.19c-2.26,1.05-4.62,1.05-7.03,0.94c-2.55-0.12-4.32-1.54-5.94-3.28
		c-3.52-3.78-7.03-7.57-10.56-11.34c-3.39-3.63-6.77-7.27-10.19-10.88c-2.83-2.99-5.7-5.94-8.56-8.91
		c-0.35-0.37-0.72-0.72-1.01-1.14c-0.64-0.92-1.54-0.73-2.2-0.29c-2.89,1.89-5.67,3.96-8.59,5.82c-2.22,1.42-4.57,2.64-6.87,3.94
		c-2.48,1.39-4.93,2.83-7.46,4.13c-2.15,1.1-4.39,2.01-6.58,3.02c-1.66,0.76-3.3,1.54-4.96,2.29c-0.85,0.38-1.72,0.74-2.6,1.05
		c-1.97,0.71-3.97,1.36-5.94,2.07c-2.16,0.77-4.29,1.61-6.47,2.34c-1.33,0.45-2.7,0.74-4.05,1.11c-1.77,0.49-3.52,1.02-5.3,1.5
		c-1.32,0.36-2.64,0.71-3.98,0.99c-1.8,0.38-3.62,0.71-5.43,1.04c-3.05,0.55-6.1,1.09-9.15,1.63c-0.5,0.09-1.01,0.13-1.52,0.19
		c-1.92,0.22-3.83,0.44-5.75,0.67c-0.67,0.08-1.33,0.23-2,0.23c-8.97,0.01-17.94,0.09-26.91-0.04c-3.5-0.05-7-0.55-10.49-0.92
		c-2.23-0.23-4.45-0.53-6.66-0.92c-2.31-0.41-4.59-0.98-6.9-1.43c-2.15-0.42-4.33-0.71-6.47-1.18c-1.79-0.39-3.54-0.93-5.31-1.42
		c-1.24-0.34-2.46-0.73-3.7-1.05c-1.51-0.4-3.04-0.7-4.54-1.14c-1.34-0.4-2.63-0.94-3.95-1.42c-0.95-0.34-1.9-0.68-2.85-1
		c-1.99-0.68-4-1.28-5.96-2.04c-1.81-0.7-3.55-1.56-5.32-2.35c-1.57-0.7-3.16-1.36-4.71-2.08c-1.62-0.76-3.21-1.57-4.81-2.38
		c-1.94-0.99-3.9-1.96-5.81-3.01c-2.28-1.25-4.55-2.54-6.78-3.88c-1.63-0.98-3.22-2.04-4.81-3.08c-2.05-1.35-4.14-2.64-6.11-4.1
		c-4.27-3.16-8.6-6.26-12.65-9.68c-4.52-3.81-8.78-7.94-13.12-11.96c-1.54-1.43-2.96-2.99-4.5-4.42c-0.21-0.2-0.98-0.2-1.14-0.01
		c-0.96,1.17-1.85,2.4-2.71,3.64c-2.01,2.91-4.02,5.83-5.99,8.76c-1.64,2.43-3.22,4.89-4.85,7.31c-1.59,2.36-3.23,4.68-4.82,7.04
		c-1.42,2.1-2.78,4.24-4.22,6.32c-1.26,1.83-2.57,3.61-3.87,5.41c-1.94,2.69-3.86,5.38-5.84,8.04c-3.72,5.02-7.62,9.91-12.67,13.65
		c-3.87,2.87-8.44,3.69-13.21,3.1c-2.05-0.25-4.16-0.53-6.07-1.24c-2.91-1.08-5.6-2.66-8.08-4.58c-2.6-2.01-4.82-4.38-6.67-7.05
		c-1.25-1.81-2.06-3.92-3.04-5.91c-2.05-4.16-2-8.61-1.57-13.05c0.16-1.62,0.85-3.24,1.51-4.76c0.78-1.77,1.61-3.58,2.76-5.12
		c1.85-2.49,3.84-4.92,6.03-7.11c4.2-4.21,8.54-8.28,12.89-12.34c3.03-2.82,6.15-5.54,9.24-8.29c3.26-2.91,6.51-5.83,9.8-8.7
		c2.89-2.52,5.83-4.98,8.75-7.46c2.17-1.85,4.36-3.69,6.52-5.55c0.68-0.59,0.69-1.23,0.1-1.96c-2.56-3.16-5.08-6.34-7.62-9.5
		c-0.44-0.54-0.89-1.07-1.35-1.61c-0.61-0.72-0.78-1.32,0.08-2.09c4.11-3.72,8.16-7.51,12.23-11.27c0.11-0.1,0.28-0.15,0.4-0.24
		c2.21-1.72,2.16-1.67,4.24,0.27c3.35,3.11,6.76,6.15,10.17,9.19c0.6,0.53,1.23,0.48,1.89-0.12
		C88.78,282.25,90.64,280.66,92.56,278.99z"/>
</g>
</svg>
