<?xml version="1.0" encoding="utf-8"?>
<!-- Generator: Adobe Illustrator 23.0.2, SVG Export Plug-In . SVG Version: 6.00 Build 0)  -->
<svg version="1.1" id="图层_1" xmlns="http://www.w3.org/2000/svg" xmlns:xlink="http://www.w3.org/1999/xlink" x="0px" y="0px"
	 viewBox="0 0 286.07 286.07" style="enable-background:new 0 0 286.07 286.07;" xml:space="preserve">
<style type="text/css">
	.st0{fill:#FFFFFF;}
	.st1{fill:#BF3730;}
</style>
<g>
	<path class="st0" d="M22.78,286.07c-7.59,0-15.19,0-22.78,0C0,190.71,0,95.36,0,0c95.36,0,190.71,0,286.07,0
		c0,86.8,0,173.59,0,260.39c-0.08-0.28-0.22-0.56-0.23-0.85c-0.09-2.61-0.89-5.04-1.93-7.4c-1.46-3.29-3.7-5.98-6.32-8.42
		c-9.32-8.67-18.59-17.39-27.89-26.08c-0.35-0.33-0.74-0.61-1.1-0.9c0.26-0.44,0.4-0.7,0.56-0.94c3.5-5.33,6.54-10.91,9.13-16.73
		c5.71-12.88,8.97-26.37,9.83-40.43c0.31-5.02,0.25-10.04-0.11-15.06c-0.43-5.95-1.32-11.82-2.63-17.63
		c-1.91-8.45-4.87-16.54-8.46-24.41c-14.32-31.36-35.58-56.95-63.83-76.72C178.3,14.48,162.3,6.52,145.18,0.83
		c-0.34-0.11-0.68-0.22-1.03-0.33c0.24,0.38,0.54,0.6,0.83,0.82c25.98,18.89,46.42,42.56,61.27,71.03
		c8.46,16.22,14.53,33.3,18.38,51.18c1.33,6.16,2.2,12.37,2.26,18.68c0.04,4.7-0.32,9.36-1.06,14c-1.6,10.02-4.93,19.43-9.94,28.26
		c-0.16,0.28-0.35,0.55-0.62,0.95c-37.95-35.53-75.83-70.99-113.77-106.51c0.39-0.41,0.69-0.73,1-1.04
		C114.81,65.58,127.1,53.29,139.39,41c0.24-0.24,0.49-0.46,0.71-0.71c0.15-0.18,0.27-0.39,0.42-0.63c-0.42-0.21-0.75-0.38-1.08-0.54
		c-9.23-4.39-18.46-8.77-27.7-13.16c-8.09-3.84-16.18-7.68-24.28-11.53C86.54,14,86.54,14,85.85,14.68
		c-0.08,0.08-0.16,0.16-0.24,0.24C57.51,43.02,29.4,71.12,1.29,99.23c-0.29,0.29-0.57,0.58-0.72,0.74
		c13.33,13.33,26.6,26.6,39.92,39.92c12.76-12.76,25.62-25.62,38.56-38.56c35.56,37.99,71.03,75.87,106.54,113.8
		c-0.38,0.25-0.62,0.42-0.87,0.57c-11.86,6.72-24.6,10.41-38.21,10.97c-8.57,0.36-17-0.61-25.28-2.89
		c-15.01-4.14-27.92-11.83-38.69-23.09c-2.86-2.99-5.38-6.26-7.86-9.57c-3.7-4.93-8.7-7.01-14.78-5.98
		c-11.02,1.88-16.08,14.77-9.39,23.73c0.24,0.32,0.47,0.64,0.77,1.03c-0.37,0.3-0.68,0.56-0.99,0.81
		c-9.19,7.28-18.38,14.55-27.57,21.83c-4.43,3.51-8.92,6.95-13.29,10.55c-6.87,5.66-9.9,13.01-8.87,21.84
		c1.2,10.25,8.94,18.42,19.07,20.48C20.68,285.62,21.73,285.85,22.78,286.07z"/>
	<path class="st1" d="M22.78,286.07c-1.05-0.22-2.1-0.44-3.15-0.66C9.5,283.35,1.76,275.18,0.56,264.93
		c-1.03-8.83,1.99-16.18,8.87-21.84c4.37-3.59,8.86-7.04,13.29-10.55c9.19-7.28,18.38-14.55,27.57-21.83
		c0.31-0.25,0.62-0.51,0.99-0.81c-0.29-0.39-0.53-0.71-0.77-1.03c-6.69-8.96-1.63-21.84,9.39-23.73c6.08-1.04,11.08,1.05,14.78,5.98
		c2.48,3.31,5,6.57,7.86,9.57c10.77,11.26,23.68,18.95,38.69,23.09c8.27,2.28,16.71,3.24,25.28,2.89
		c13.61-0.57,26.35-4.25,38.21-10.97c0.26-0.14,0.49-0.32,0.87-0.57c-35.51-37.93-70.98-75.81-106.54-113.8
		c-12.95,12.95-25.8,25.8-38.56,38.56C27.18,126.57,13.9,113.29,0.58,99.97c0.15-0.16,0.43-0.45,0.72-0.74
		C29.4,71.12,57.51,43.02,85.61,14.91c0.08-0.08,0.16-0.16,0.24-0.24c0.69-0.68,0.69-0.68,1.61-0.24
		c8.09,3.84,16.18,7.68,24.28,11.53c9.23,4.39,18.46,8.77,27.7,13.16c0.33,0.16,0.66,0.33,1.08,0.54c-0.16,0.23-0.27,0.45-0.42,0.63
		c-0.22,0.25-0.47,0.48-0.71,0.71c-12.29,12.29-24.58,24.58-36.87,36.87c-0.31,0.31-0.61,0.63-1,1.04
		c37.94,35.52,75.82,70.98,113.77,106.51c0.26-0.4,0.46-0.67,0.62-0.95c5.01-8.82,8.34-18.23,9.94-28.26c0.74-4.64,1.1-9.31,1.06-14
		c-0.06-6.31-0.93-12.52-2.26-18.68c-3.86-17.88-9.93-34.96-18.38-51.18c-14.85-28.48-35.29-52.15-61.27-71.03
		c-0.3-0.22-0.59-0.44-0.83-0.82c0.34,0.11,0.69,0.22,1.03,0.33c17.12,5.69,33.11,13.65,47.89,23.99
		c28.24,19.76,49.5,45.36,63.83,76.72c3.59,7.87,6.55,15.95,8.46,24.41c1.31,5.81,2.2,11.69,2.63,17.63
		c0.36,5.02,0.42,10.04,0.11,15.06c-0.86,14.06-4.12,27.54-9.83,40.43c-2.58,5.83-5.63,11.4-9.13,16.73
		c-0.16,0.24-0.3,0.5-0.56,0.94c0.37,0.3,0.76,0.58,1.1,0.9c9.3,8.69,18.57,17.41,27.89,26.08c2.62,2.44,4.86,5.13,6.32,8.42
		c1.05,2.36,1.84,4.79,1.93,7.4c0.01,0.28,0.15,0.56,0.23,0.85c0,1.04,0,2.08,0,3.13c-0.11,0.84-0.2,1.68-0.35,2.52
		c-1.72,10.19-9.85,18.12-20.05,19.6c-0.65,0.09-1.29,0.29-1.94,0.44c-1.04,0-2.08,0-3.13,0c-0.28-0.08-0.55-0.2-0.84-0.25
		c-2.4-0.35-4.75-0.88-6.98-1.85c-3.18-1.38-5.92-3.38-8.29-5.92c-8.91-9.54-17.85-19.07-26.77-28.61c-0.3-0.32-0.54-0.71-0.79-1.04
		c-22.47,14.6-46.8,21.35-73.34,19.37c-26.55-1.98-49.72-12.1-69.68-29.74c-0.3,0.36-0.54,0.63-0.77,0.92
		c-1.94,2.45-3.88,4.9-5.82,7.35c-7.94,10.03-15.9,20.06-23.82,30.1c-3.82,4.84-8.71,7.9-14.77,9.08c-0.94,0.18-1.88,0.38-2.82,0.57
		C24.86,286.07,23.82,286.07,22.78,286.07z"/>
	<path class="st0" d="M25.9,286.07c0.94-0.19,1.88-0.38,2.82-0.57c6.06-1.19,10.95-4.24,14.77-9.08
		c7.93-10.05,15.88-20.07,23.82-30.1c1.94-2.45,3.88-4.9,5.82-7.35c0.23-0.29,0.47-0.56,0.77-0.92
		c19.97,17.64,43.13,27.76,69.68,29.74c26.55,1.98,50.87-4.77,73.34-19.37c0.25,0.33,0.49,0.72,0.79,1.04
		c8.92,9.54,17.85,19.06,26.77,28.61c2.37,2.54,5.11,4.53,8.29,5.92c2.23,0.97,4.58,1.5,6.98,1.85c0.29,0.04,0.56,0.16,0.84,0.25
		C182.37,286.07,104.14,286.07,25.9,286.07z"/>
	<path class="st0" d="M263.74,286.07c0.65-0.15,1.29-0.34,1.94-0.44c10.2-1.48,18.32-9.41,20.05-19.6c0.14-0.84,0.23-1.68,0.35-2.52
		c0,7.52,0,15.04,0,22.55C278.62,286.07,271.18,286.07,263.74,286.07z"/>
</g>
</svg>
